<svg xmlns="http://www.w3.org/2000/svg" version="1.1" xmlns:xlink="http://www.w3.org/1999/xlink" xmlns:svgjs="http://svgjs.dev/svgjs" width="1000" height="623" viewBox="0 0 1000 623"><g transform="matrix(1,0,0,1,-0.6060606060606233,0.2522267206477409)"><svg viewBox="0 0 396 247" data-background-color="#ffffff" preserveAspectRatio="xMidYMid meet" height="623" width="1000" xmlns="http://www.w3.org/2000/svg" xmlns:xlink="http://www.w3.org/1999/xlink"><g id="tight-bounds" transform="matrix(1,0,0,1,0.2400000000000091,-0.09999999999999432)"><svg viewBox="0 0 395.52 247.2" height="247.2" width="395.52"><g><svg></svg></g><g><svg viewBox="0 0 395.52 247.2" height="247.2" width="395.52"><g transform="matrix(1,0,0,1,112.91274402332361,47.215199999999996)"><svg viewBox="0 0 169.69451195335276 152.7696" height="152.7696" width="169.69451195335276"><g><svg viewBox="0 0 169.69451195335276 152.7696" height="152.7696" width="169.69451195335276"><g><svg viewBox="0 0 169.69451195335276 152.7696" height="152.7696" width="169.69451195335276"><g><svg viewBox="0 0 169.69451195335276 152.7696" height="152.7696" width="169.69451195335276"><g id="textblocktransform"><svg viewBox="0 0 169.69451195335276 152.7696" height="152.7696" width="169.69451195335276" id="textblock"><g><svg viewBox="0 0 169.69451195335276 152.7696" height="152.7696" width="169.69451195335276"><g transform="matrix(1,0,0,1,0,0)"><svg width="169.69451195335276" viewBox="-1 -34.3 38.1 34.3" height="152.7696" data-palette-color="#7a26c1"><path d="M33.5-3.2L37.1-2.65 37.05 0 20.1 0 19.8-1.6Q21.2-2.6 23.8-3.85L23.8-3.85 22.05-8.6 11.05-8.6 9.05-3.35 13.35-2.65 13.3 0-0.7 0-1-1.6Q0.75-2.8 3.2-3.9L3.2-3.9 13.9-30.25 13.15-32.3 20.95-34.3 33.5-3.2ZM12.6-12.8L20.45-12.8 16.55-23.3 12.6-12.8Z" opacity="1" transform="matrix(1,0,0,1,0,0)" fill="#7a26c1" class="wordmark-text-0" data-fill-palette-color="primary" id="text-0"></path></svg></g></svg></g></svg></g></svg></g></svg></g></svg></g></svg></g><path d="M295.214 41.215L295.214 0 48.014 0 48.014 247.2 295.214 247.2 295.214 205.985 281.437 205.985 281.437 233.423 61.791 233.423 61.791 13.777 281.437 13.777 281.437 41.215Z" fill="#7a26c1" stroke="transparent" data-fill-palette-color="primary"></path></svg></g><defs></defs></svg><rect width="395.52" height="247.2" fill="none" stroke="none" visibility="hidden"></rect></g></svg></g></svg>